<svg width="64" height="64" viewBox="0 0 64 64" fill="none" xmlns="http://www.w3.org/2000/svg">
<path fill-rule="evenodd" clip-rule="evenodd" d="M53.6618 47.439C51.3113 48.1295 48.8239 48.5 46.25 48.5C31.7525 48.5 20 36.7475 20 22.25C20 16.5899 21.7914 11.3482 24.8382 7.06097C13.9498 10.2597 6 20.3265 6 32.25C6 46.7475 17.7525 58.5 32.25 58.5C41.0874 58.5 48.9048 54.1329 53.6618 47.439Z" fill="#BCBCBC"/>
<path d="M40.5 12L42.4084 17.8734L48.584 17.8734L43.5878 21.5033L45.4962 27.3766L40.5 23.7467L35.5038 27.3766L37.4122 21.5033L32.416 17.8734L38.5916 17.8734L40.5 12Z" fill="#C4C4C4"/>
</svg>
