<svg width="64" height="64" viewBox="0 0 64 64" fill="none" xmlns="http://www.w3.org/2000/svg">
<path fill-rule="evenodd" clip-rule="evenodd" d="M32.25 58.5C46.7475 58.5 58.5 46.7475 58.5 32.25C58.5 17.7525 46.7475 6 32.25 6C17.7525 6 6 17.7525 6 32.25C6 46.7475 17.7525 58.5 32.25 58.5ZM30.7695 32.8104C30.3104 32.554 30 32.0632 30 31.5V11.5C30 10.6716 30.6716 10 31.5 10C32.3284 10 33 10.6716 33 11.5V30.8906L42.416 37.1679C43.1053 37.6275 43.2915 38.5588 42.832 39.2481C42.3725 39.9374 41.4412 40.1236 40.7519 39.6641L31.248 33.3282C31.0426 33.1912 30.8818 33.0123 30.7695 32.8104Z" fill="#BCBCBC"/>
</svg>
