<svg width="64" height="64" viewBox="0 0 64 64" fill="none" xmlns="http://www.w3.org/2000/svg">
<g clip-path="url(#clip0)">
<path fill-rule="evenodd" clip-rule="evenodd" d="M6.98505 25.1263C3.05075 39.0797 11.1729 53.5806 25.1263 57.5149C32.0103 59.4559 34.7691 55.5583 41.3817 41.3185C45.0206 33.4822 48.6156 36.9606 51.6218 39.8694C54.0785 42.2464 56.1419 44.2429 57.5149 39.3737C61.4492 25.4202 53.3271 10.9194 39.3736 6.98508C25.4202 3.05078 10.9193 11.1729 6.98505 25.1263ZM15.5921 31.4494C13.7317 30.9248 12.6487 28.9913 13.1733 27.1309C13.6978 25.2704 15.6313 24.1875 17.4918 24.7121C19.3522 25.2366 20.4352 27.1701 19.9106 29.0305C19.386 30.891 17.4526 31.9739 15.5921 31.4494ZM18.7745 18.3203C18.2499 20.1808 19.3329 22.1142 21.1933 22.6388C23.0538 23.1633 24.9872 22.0804 25.5118 20.2199C26.0364 18.3595 24.9534 16.426 23.093 15.9015C21.2325 15.3769 19.2991 16.4598 18.7745 18.3203ZM30.5214 19.035C28.6609 18.5104 27.578 16.5769 28.1025 14.7165C28.6271 12.856 30.5606 11.7731 32.421 12.2977C34.2815 12.8222 35.3644 14.7557 34.8398 16.6161C34.3153 18.4766 32.3818 19.5595 30.5214 19.035ZM13.3469 37.5697C12.8223 39.4302 13.9053 41.3637 15.7657 41.8882C17.6262 42.4128 19.5596 41.3299 20.0842 39.4694C20.6088 37.6089 19.5258 35.6755 17.6654 35.1509C15.8049 34.6263 13.8715 35.7093 13.3469 37.5697ZM21.8373 49.8341C19.9768 49.3095 18.8938 47.3761 19.4184 45.5156C19.943 43.6552 21.8764 42.5722 23.7369 43.0968C25.5974 43.6214 26.6803 45.5548 26.1557 47.4153C25.6312 49.2757 23.6977 50.3587 21.8373 49.8341ZM37.9986 16.4678C37.4741 18.3283 38.557 20.2617 40.4175 20.7863C42.2779 21.3108 44.2114 20.2279 44.7359 18.3674C45.2605 16.507 44.1776 14.5735 42.3171 14.049C40.4567 13.5244 38.5232 14.6073 37.9986 16.4678Z" fill="#BCBCBC"/>
</g>
<defs>
<clipPath id="clip0">
<rect width="64" height="64" fill="white"/>
</clipPath>
</defs>
</svg>
