<svg width="64" height="64" viewBox="0 0 64 64" fill="none" xmlns="http://www.w3.org/2000/svg">
<g clip-path="url(#clip0)">
<path fill-rule="evenodd" clip-rule="evenodd" d="M37.4268 6.51034V0.176697H27.4268V6.44216C25.5708 6.78685 23.7833 7.32682 22.0866 8.03995C20.5293 8.67412 19.0206 9.46405 17.5843 10.4097L13.0848 5.91028L6.01377 12.9813L10.4251 17.3927C8.37604 20.3403 7.00054 23.6142 6.2986 27H0V37H6.1621C6.80855 40.6129 8.21544 44.1164 10.3828 47.2532L6.19057 51.4454L13.2616 58.5164L17.522 54.256C18.9576 55.2072 20.4662 56.0022 22.0237 56.6412C22.0798 56.6647 22.136 56.688 22.1922 56.7111C23.8579 57.3967 25.6097 57.9159 27.4268 58.248V64.1767H37.4268V58.1516C39.0656 57.8189 40.649 57.3336 42.1615 56.711C43.8693 56.0097 45.5181 55.1207 47.0764 54.044L51.2686 58.2362L58.3397 51.1651L54.0793 46.9047C55.0212 45.4831 55.81 43.99 56.4457 42.4487L56.4729 42.3827C57.189 40.6728 57.7294 38.871 58.0713 37H64V27H57.9749C57.2873 23.6128 55.9476 20.4624 54.0924 17.6857L58.5165 13.2616L51.4454 6.19053L47.0613 10.5747C44.2051 8.61919 40.9427 7.21357 37.4268 6.51034ZM42 32.5C42 37.7467 37.5228 42 32 42C26.4772 42 22 37.7467 22 32.5C22 27.2533 26.4772 23 32 23C37.5228 23 42 27.2533 42 32.5Z" fill="#BCBCBC"/>
</g>
<defs>
<clipPath id="clip0">
<rect width="64" height="64" fill="white"/>
</clipPath>
</defs>
</svg>
